<svg xmlns="http://www.w3.org/2000/svg" viewBox="0 0 229 60.119"><g fill="#231f20" data-name="Group 1962"><path d="M31.911 49.843c-.185-.092-.2-.145-.2-.5 0-.66.053-1.187.066-1.4.013-.145.04-.211.106-.211s.092.04.092.145a2.323 2.323 0 0 0 .04.488 1.8 1.8 0 0 0 1.952 1.346 1.761 1.761 0 0 0 1.886-1.755c0-.91-.383-1.438-1.517-2.375l-.594-.488c-1.4-1.148-1.715-1.966-1.715-2.863 0-1.412 1.055-2.375 2.731-2.375a5.116 5.116 0 0 1 1.227.132 2.158 2.158 0 0 0 .462.066c.106 0 .132.026.132.092s-.053.5-.053 1.4c0 .211-.026.3-.092.3s-.092-.066-.106-.171a2.318 2.318 0 0 0-.171-.66c-.079-.145-.435-.7-1.649-.7a1.5 1.5 0 0 0-1.623 1.53c0 .752.343 1.227 1.609 2.216l.369.29c1.557 1.227 1.926 2.045 1.926 3.1a2.733 2.733 0 0 1-1.121 2.19 3.47 3.47 0 0 1-1.992.554 4 4 0 0 1-1.768-.356Z" data-name="Path 153"/><path d="M40.063 48.959a4.207 4.207 0 0 1-1.412-3.324 4.436 4.436 0 0 1 1.306-3.06 4.788 4.788 0 0 1 3.535-1.2 11.392 11.392 0 0 1 1.689.132 8.306 8.306 0 0 0 1.187.171c.119 0 .145.053.145.119 0 .092-.026.224-.053.633-.013.369-.013.989-.026 1.148s-.066.237-.132.237-.092-.079-.092-.237a1.461 1.461 0 0 0-.488-1.121 3.776 3.776 0 0 0-2.282-.62 3.57 3.57 0 0 0-2.612.778 3.663 3.663 0 0 0-1.042 2.929 4.073 4.073 0 0 0 4.178 4.056 2.451 2.451 0 0 0 1.913-.528 2.09 2.09 0 0 0 .449-.937c.026-.119.04-.158.119-.158.053 0 .106.079.106.158a11.764 11.764 0 0 1-.277 1.438c-.066.211-.092.251-.29.33a6.864 6.864 0 0 1-2.1.251 5.472 5.472 0 0 1-3.826-1.2Z" data-name="Path 154"/><path d="M56.395 46.76c0 1.082.013 1.966.066 2.427.04.33.066.541.422.594a4.528 4.528 0 0 0 .514.053.094.094 0 0 1 .106.092c0 .053-.066.092-.2.092-.633 0-1.372-.04-1.438-.04s-.8.04-1.148.04c-.132 0-.185-.026-.185-.092a.09.09 0 0 1 .092-.092 1.544 1.544 0 0 0 .343-.053c.237-.053.277-.277.317-.607.053-.462.053-1.306.053-2.388v-1.121c0-.053-.026-.066-.066-.066h-4.835c-.04 0-.066.013-.066.066v1.121c0 1.082 0 1.939.053 2.4.04.33.079.541.422.594a4.721 4.721 0 0 0 .528.053.09.09 0 0 1 .092.092c0 .053-.053.092-.185.092-.646 0-1.385-.04-1.438-.04s-.8.04-1.161.04c-.119 0-.185-.026-.185-.092a.09.09 0 0 1 .092-.092 1.66 1.66 0 0 0 .356-.053c.224-.053.251-.264.3-.594a22.894 22.894 0 0 0 .066-2.427v-1.982c0-1.741 0-2.058-.026-2.414-.026-.383-.092-.567-.475-.62a3.736 3.736 0 0 0-.4-.026.112.112 0 0 1-.092-.092c0-.066.053-.092.185-.092.528 0 1.266.026 1.332.026s.792-.026 1.148-.026c.132 0 .185.026.185.092a.112.112 0 0 1-.092.092 1.3 1.3 0 0 0-.29.026c-.317.066-.383.224-.409.62-.013.356-.013.7-.013 2.44v.237c0 .066.026.066.066.066h4.837c.04 0 .066 0 .066-.066v-.24c0-1.741-.013-2.084-.026-2.44-.026-.383-.079-.567-.462-.62a3.736 3.736 0 0 0-.4-.026.1.1 0 0 1-.092-.092c0-.066.053-.092.185-.092.514 0 1.266.026 1.319.026s.8-.026 1.148-.026c.132 0 .2.026.2.092a.113.113 0 0 1-.106.092 1.356 1.356 0 0 0-.29.026c-.3.066-.369.224-.4.62-.026.356-.026.673-.026 2.414v1.979Z" data-name="Path 155"/><path d="M63.584 41.383c2.608 0 4.586 1.6 4.586 4.2a4.436 4.436 0 0 1-4.657 4.578 4.3 4.3 0 0 1-4.534-4.406 4.438 4.438 0 0 1 4.605-4.372Zm.264 8.315c1.042 0 3.14-.554 3.14-3.795 0-2.691-1.636-4.1-3.469-4.1-1.939 0-3.338 1.214-3.338 3.654 0 2.608 1.57 4.243 3.667 4.243Z" data-name="Path 156"/><path d="M74.243 41.383c2.608 0 4.586 1.6 4.586 4.2a4.436 4.436 0 0 1-4.657 4.578 4.3 4.3 0 0 1-4.534-4.406 4.438 4.438 0 0 1 4.605-4.372Zm.264 8.315c1.042 0 3.14-.554 3.14-3.795 0-2.691-1.636-4.1-3.469-4.1-1.939 0-3.338 1.214-3.338 3.654 0 2.608 1.57 4.243 3.667 4.243Z" data-name="Path 157"/><path d="M82.317 46.787c0 1.649.026 2.322.237 2.52.185.185.633.264 1.543.264.607 0 1.121-.013 1.4-.343a1.373 1.373 0 0 0 .277-.633c.013-.079.053-.145.119-.145s.079.053.079.171a7.079 7.079 0 0 1-.171 1.121c-.079.264-.119.3-.739.3-.831 0-1.477-.013-2.018-.04s-.923-.026-1.266-.026c-.053 0-.251 0-.475.013s-.488.026-.673.026c-.119 0-.185-.026-.185-.092a.09.09 0 0 1 .092-.092 1.661 1.661 0 0 0 .356-.053c.224-.053.251-.264.3-.594a22.9 22.9 0 0 0 .066-2.427v-1.975c0-1.741 0-2.058-.026-2.414-.026-.383-.092-.567-.475-.62a3.736 3.736 0 0 0-.4-.026.112.112 0 0 1-.092-.092c0-.066.053-.092.185-.092.528 0 1.253.026 1.319.026s.923-.026 1.28-.026c.119 0 .185.026.185.092 0 .04-.053.079-.092.079a5.18 5.18 0 0 0-.383.026c-.343.066-.409.237-.435.633-.013.356-.013.673-.013 2.414v2.005Z" data-name="Path 158"/><path d="M95.891 41.383c2.608 0 4.586 1.6 4.586 4.2a4.435 4.435 0 0 1-4.652 4.578 4.3 4.3 0 0 1-4.534-4.406 4.438 4.438 0 0 1 4.6-4.375Zm.264 8.315c1.042 0 3.14-.554 3.14-3.795 0-2.691-1.636-4.1-3.469-4.1-1.939 0-3.338 1.214-3.338 3.654 0 2.608 1.57 4.243 3.667 4.243Z" data-name="Path 159"/><path d="M102.913 44.782c0-1.741 0-2.058-.026-2.414-.026-.383-.092-.567-.475-.62a3.736 3.736 0 0 0-.4-.026.112.112 0 0 1-.092-.092c0-.066.053-.092.185-.092.528 0 1.253.026 1.319.026.224 0 2.744.013 3.008 0a2.4 2.4 0 0 0 .528-.053c.066-.013.119-.066.158-.066s.079.053.079.106c0 .079-.053.211-.092.528-.013.106-.026.607-.053.739-.013.053-.053.119-.106.119s-.092-.053-.092-.132a1.226 1.226 0 0 0-.106-.422.873.873 0 0 0-.792-.33l-1.9-.026c-.066 0-.092.026-.092.119V45.2c0 .066 0 .106.079.106l1.583-.013c.2 0 .369 0 .528-.013.277-.026.435-.066.541-.2.053-.066.106-.119.145-.119s.066.04.066.092a4.608 4.608 0 0 0-.106.62c-.026.224-.04.673-.04.752 0 .106-.026.224-.106.224s-.079-.053-.079-.106a1.6 1.6 0 0 0-.079-.409c-.053-.158-.237-.3-.594-.356-.29-.04-1.662-.026-1.856-.026-.066 0-.079.026-.079.106v.9c0 1.108 0 1.992.053 2.427.04.33.106.541.422.594a4.721 4.721 0 0 0 .528.053.09.09 0 0 1 .092.092c0 .053-.053.092-.185.092-.646 0-1.4-.04-1.451-.04s-.792.04-1.148.04c-.119 0-.185-.026-.185-.092a.09.09 0 0 1 .092-.092 3.313 3.313 0 0 0 .356-.053c.224-.04.251-.264.3-.594a22.9 22.9 0 0 0 .066-2.427v-1.981Z" data-name="Path 160"/><path d="M124.367 48.317c.053.475.145 1.214.712 1.4a2.861 2.861 0 0 0 .857.119c.066 0 .106.013.106.066 0 .079-.119.119-.277.119-.29 0-1.715-.04-2.2-.079-.3-.026-.369-.066-.369-.132s.026-.079.092-.092.079-.237.053-.475l-.633-6.8h-.04l-3.232 6.855c-.277.58-.317.7-.435.7-.092 0-.158-.132-.409-.607a217.5 217.5 0 0 1-1.543-3.06c-.119-.237-1.6-3.4-1.741-3.755h-.053l-.528 6.117c-.013.211-.013.449-.013.673a.422.422 0 0 0 .343.409 2.432 2.432 0 0 0 .5.066c.053 0 .106.026.106.066 0 .092-.079.119-.237.119-.488 0-1.121-.04-1.227-.04s-.752.04-1.108.04c-.132 0-.224-.026-.224-.119 0-.04.066-.066.132-.066a1.7 1.7 0 0 0 .4-.04c.435-.079.475-.594.528-1.095l.95-8.6c.013-.145.066-.237.145-.237s.132.053.2.2l4.037 8.293 3.878-8.28c.053-.119.106-.211.2-.211s.132.106.158.356l.884 8.1Z" data-name="Path 161"/><path d="M128.105 44.782c0-1.741 0-2.058-.026-2.414-.026-.383-.092-.567-.475-.62a3.736 3.736 0 0 0-.4-.026.112.112 0 0 1-.092-.092c0-.066.053-.092.185-.092.528 0 1.28.026 1.346.026s2.506.013 2.77 0c.224-.013.435-.053.528-.066a.744.744 0 0 1 .158-.053c.04 0 .053.053.053.106 0 .079-.066.211-.092.528-.013.106-.04.607-.066.739-.013.053-.053.119-.106.119s-.092-.053-.092-.145a1.229 1.229 0 0 0-.066-.4c-.079-.185-.2-.264-.831-.343-.2-.026-1.543-.04-1.675-.04-.053 0-.066.04-.066.119v3.047c0 .079 0 .119.066.119.145 0 1.675 0 1.939-.026s.449-.04.567-.158c.079-.079.132-.145.171-.145s.066.026.066.092a6.114 6.114 0 0 0-.092.62c-.026.224-.053.646-.053.726s-.026.211-.106.211c-.053 0-.079-.04-.079-.106a1 1 0 0 0-.053-.369c-.04-.158-.145-.29-.594-.343-.317-.04-1.557-.053-1.755-.053a.069.069 0 0 0-.079.079v.937c0 .383-.013 1.689 0 1.913.026.752.237.9 1.385.9a3.865 3.865 0 0 0 1.161-.119.851.851 0 0 0 .528-.778c.026-.132.053-.171.119-.171s.079.092.079.171a9.3 9.3 0 0 1-.158 1.082c-.079.29-.2.29-.646.29-.871 0-1.543-.026-2.018-.04s-.792-.026-.963-.026c-.026 0-.251 0-.5.013-.224.013-.488.026-.673.026-.119 0-.185-.026-.185-.092a.09.09 0 0 1 .092-.092 3.313 3.313 0 0 0 .356-.053c.224-.04.251-.264.3-.594a22.893 22.893 0 0 0 .066-2.427v-1.98Z" data-name="Path 162"/><path d="M135.374 44.782c0-1.741 0-2.058-.026-2.414-.026-.383-.092-.567-.475-.62a3.736 3.736 0 0 0-.4-.026.112.112 0 0 1-.092-.092c0-.066.053-.092.185-.092.528 0 1.28.026 1.346.026.132 0 .871-.026 1.557-.026 1.161 0 3.28-.106 4.657 1.28a3.939 3.939 0 0 1 1.134 2.849 4.491 4.491 0 0 1-1.253 3.153 4.661 4.661 0 0 1-3.522 1.293c-.5 0-1.121-.04-1.623-.066s-.9-.066-.95-.066c-.026 0-.237.013-.475.013s-.514.026-.7.026c-.119 0-.185-.026-.185-.092a.09.09 0 0 1 .092-.092 1.66 1.66 0 0 0 .356-.053c.224-.053.251-.264.3-.594a22.893 22.893 0 0 0 .066-2.427v-1.98ZM136.429 46c0 1.187 0 2.229.013 2.44a2.12 2.12 0 0 0 .132.8c.145.211.554.449 1.926.449a3.892 3.892 0 0 0 2.717-1.016 3.775 3.775 0 0 0 .91-2.665 3.9 3.9 0 0 0-1.095-2.81 4.784 4.784 0 0 0-3.755-1.253 3.1 3.1 0 0 0-.7.079.2.2 0 0 0-.145.224V46Z" data-name="Path 163"/><path d="M146.982 46.76c0 1.082 0 1.966.053 2.427.04.33.079.541.422.594a4.721 4.721 0 0 0 .528.053.09.09 0 0 1 .092.092c0 .053-.053.092-.185.092-.646 0-1.4-.04-1.447-.04-.066 0-.791.04-1.148.04-.119 0-.185-.026-.185-.092a.09.09 0 0 1 .092-.092 1.66 1.66 0 0 0 .356-.053c.224-.053.264-.264.3-.594.053-.462.066-1.346.066-2.427v-1.978c0-1.741 0-2.058-.026-2.414-.026-.383-.119-.554-.369-.607a2.075 2.075 0 0 0-.356-.04.1.1 0 0 1-.092-.092c0-.066.053-.092.185-.092.383 0 1.108.026 1.174.026s.8-.026 1.161-.026c.132 0 .185.026.185.092a.112.112 0 0 1-.092.092 1.3 1.3 0 0 0-.29.026c-.317.066-.383.224-.409.62-.013.356-.013.673-.013 2.414v1.979Z" data-name="Path 164"/><path d="M150.966 48.959a4.207 4.207 0 0 1-1.412-3.324 4.436 4.436 0 0 1 1.306-3.06 4.788 4.788 0 0 1 3.535-1.2 11.392 11.392 0 0 1 1.689.132 8.306 8.306 0 0 0 1.187.171c.119 0 .145.053.145.119 0 .092-.026.224-.053.633-.013.369-.013.989-.026 1.148s-.066.237-.132.237-.092-.079-.092-.237a1.461 1.461 0 0 0-.488-1.121 3.776 3.776 0 0 0-2.282-.62 3.57 3.57 0 0 0-2.612.778 3.663 3.663 0 0 0-1.042 2.929 4.074 4.074 0 0 0 4.182 4.059 2.451 2.451 0 0 0 1.913-.528 2.09 2.09 0 0 0 .449-.937c.026-.119.04-.158.119-.158.053 0 .106.079.106.158a11.763 11.763 0 0 1-.277 1.438c-.066.211-.092.251-.29.33a6.864 6.864 0 0 1-2.1.251 5.452 5.452 0 0 1-3.821-1.2Z" data-name="Path 165"/><path d="M161.269 46.76c0 1.082 0 1.966.053 2.427.04.33.079.541.422.594a4.721 4.721 0 0 0 .528.053.09.09 0 0 1 .092.092c0 .053-.053.092-.185.092-.646 0-1.4-.04-1.451-.04s-.791.04-1.148.04c-.119 0-.185-.026-.185-.092a.09.09 0 0 1 .092-.092 1.66 1.66 0 0 0 .356-.053c.224-.053.264-.264.3-.594.053-.462.066-1.346.066-2.427v-1.978c0-1.741 0-2.058-.026-2.414-.026-.383-.119-.554-.369-.607a2.075 2.075 0 0 0-.356-.04.1.1 0 0 1-.092-.092c0-.066.053-.092.185-.092.383 0 1.108.026 1.174.026s.8-.026 1.161-.026c.132 0 .185.026.185.092a.112.112 0 0 1-.092.092 1.3 1.3 0 0 0-.29.026c-.317.066-.383.224-.409.62-.013.356-.013.673-.013 2.414v1.979Z" data-name="Path 166"/><path d="M165.57 48.488c.026.923.132 1.2.449 1.28a2.759 2.759 0 0 0 .58.066.09.09 0 0 1 .092.092c0 .066-.079.092-.211.092-.66 0-1.121-.04-1.227-.04s-.594.04-1.121.04c-.119 0-.185-.013-.185-.092a.09.09 0 0 1 .092-.092 1.827 1.827 0 0 0 .475-.066c.29-.079.33-.383.33-1.4V41.95c0-.449.066-.567.158-.567.132 0 .33.224.449.343.185.185 1.873 1.979 3.667 3.826 1.148 1.187 2.388 2.515 2.744 2.885l-.119-5.615c-.013-.726-.079-.976-.435-1.042a3.716 3.716 0 0 0-.567-.053c-.079 0-.092-.066-.092-.106 0-.066.092-.079.224-.079.528 0 1.082.026 1.214.026s.514-.026.989-.026c.119 0 .211.013.211.079a.131.131 0 0 1-.132.106 1.314 1.314 0 0 0-.277.026c-.383.079-.409.3-.409.976l-.026 6.565c0 .739-.013.8-.092.8-.119 0-.237-.092-.884-.686a132.311 132.311 0 0 1-3.021-3.034c-1.341-1.412-2.647-2.783-3.008-3.179l.132 5.29Z" data-name="Path 167"/><path d="M175.806 44.782c0-1.741 0-2.058-.026-2.414-.026-.383-.092-.567-.475-.62a3.736 3.736 0 0 0-.4-.026.112.112 0 0 1-.092-.092c0-.066.053-.092.185-.092.528 0 1.28.026 1.346.026s2.506.013 2.77 0c.224-.013.435-.053.528-.066a.744.744 0 0 1 .158-.053c.04 0 .053.053.053.106 0 .079-.066.211-.092.528-.013.106-.04.607-.066.739-.013.053-.053.119-.106.119s-.092-.053-.092-.145a1.23 1.23 0 0 0-.066-.4c-.079-.185-.2-.264-.831-.343-.2-.026-1.543-.04-1.675-.04-.053 0-.066.04-.066.119v3.047c0 .079 0 .119.066.119.145 0 1.675 0 1.939-.026s.449-.04.567-.158c.079-.079.132-.145.172-.145s.066.026.066.092a6.116 6.116 0 0 0-.092.62c-.026.224-.053.646-.053.726s-.026.211-.106.211c-.053 0-.079-.04-.079-.106a1 1 0 0 0-.053-.369c-.04-.158-.145-.29-.594-.343-.317-.04-1.557-.053-1.755-.053a.069.069 0 0 0-.079.079v.937c0 .383-.013 1.689 0 1.913.026.752.237.9 1.385.9a3.865 3.865 0 0 0 1.161-.119.851.851 0 0 0 .528-.778c.026-.132.053-.171.119-.171s.079.092.079.171a9.294 9.294 0 0 1-.158 1.082c-.079.29-.2.29-.646.29-.871 0-1.543-.026-2.018-.04s-.792-.026-.963-.026c-.026 0-.251 0-.5.013-.224.013-.488.026-.673.026-.119 0-.185-.026-.185-.092a.09.09 0 0 1 .092-.092 3.313 3.313 0 0 0 .356-.053c.224-.04.251-.264.3-.594a22.9 22.9 0 0 0 .066-2.427v-1.98Z" data-name="Path 168"/></g><g fill="#231f20" data-name="Group 1966"><g data-name="Group 1963"><path d="M31.6 27.72c0-2.55 0-3.008-.031-3.531-.035-.558-.163-.818-.7-.932a3.246 3.246 0 0 0-.554-.048c-.066 0-.132-.035-.132-.1 0-.1.084-.128.259-.128.739 0 1.733.048 1.882.048s1.13-.048 1.618-.048c.18 0 .259.031.259.128 0 .066-.066.1-.128.1a2.6 2.6 0 0 0-.409.048c-.44.066-.572.361-.6.932-.031.523-.031.981-.031 3.531v2.291c0 2.357.523 3.368 1.227 4.041a3.2 3.2 0 0 0 2.467.9 3.436 3.436 0 0 0 2.568-1.178 6.351 6.351 0 0 0 .95-4.006v-2.043c0-2.55 0-3.008-.035-3.531-.031-.558-.163-.818-.7-.932a3.259 3.259 0 0 0-.558-.048c-.066 0-.132-.035-.132-.1 0-.1.084-.128.264-.128.734 0 1.636.048 1.733.048.114 0 .884-.048 1.372-.048.18 0 .264.031.264.128 0 .066-.066.1-.132.1a2.66 2.66 0 0 0-.409.048c-.444.1-.572.361-.607.932-.031.523-.031.981-.031 3.531v1.75c0 1.768-.2 3.729-1.5 4.89a4.792 4.792 0 0 1-3.368 1.209 5.028 5.028 0 0 1-3.368-1.161c-.8-.77-1.425-1.913-1.425-4.3v-2.388Z" data-name="Path 169"/><path d="M44.878 33.445c.031 1.143.163 1.486.554 1.587a3.423 3.423 0 0 0 .717.084.111.111 0 0 1 .114.114c0 .084-.1.114-.264.114-.818 0-1.39-.048-1.521-.048s-.734.048-1.39.048c-.145 0-.229-.018-.229-.114a.111.111 0 0 1 .114-.114 2.276 2.276 0 0 0 .589-.084c.361-.1.409-.475.409-1.733v-7.962c0-.558.084-.7.2-.7.163 0 .409.277.554.427.229.229 2.322 2.454 4.547 4.745 1.42 1.473 2.959 3.122 3.4 3.584l-.145-6.965c-.018-.9-.1-1.209-.541-1.293a4.744 4.744 0 0 0-.7-.066.116.116 0 0 1-.114-.132c0-.084.114-.1.277-.1.655 0 1.341.031 1.5.031s.638-.031 1.227-.031c.15 0 .264.018.264.1a.164.164 0 0 1-.163.132 1.508 1.508 0 0 0-.343.035c-.475.1-.506.374-.506 1.209l-.028 8.139c0 .915-.018 1-.114 1-.145 0-.295-.114-1.095-.849a175.263 175.263 0 0 1-3.746-3.76c-1.667-1.75-3.289-3.452-3.729-3.94l.163 6.556Z" data-name="Path 170"/><path d="M58.879 31.3c0 1.341 0 2.436.066 3.008.048.409.1.673.523.734a5.3 5.3 0 0 0 .655.066.11.11 0 0 1 .114.114c0 .066-.066.114-.229.114-.8 0-1.733-.048-1.8-.048-.084 0-.981.048-1.42.048-.15 0-.229-.035-.229-.114a.11.11 0 0 1 .114-.114 1.937 1.937 0 0 0 .444-.066c.277-.066.325-.325.374-.734.066-.572.084-1.667.084-3.008v-2.45c0-2.159 0-2.55-.031-2.995-.035-.475-.145-.686-.457-.752a2.756 2.756 0 0 0-.44-.048.123.123 0 0 1-.114-.114c0-.084.066-.114.229-.114.475 0 1.372.031 1.455.031.066 0 1-.031 1.438-.031.163 0 .229.031.229.114a.14.14 0 0 1-.114.114 1.5 1.5 0 0 0-.361.035c-.391.084-.475.277-.506.77-.018.44-.018.835-.018 2.995v2.454Z" data-name="Path 171"/><path d="M67.093 33.529c.835-1.864 2.713-6.609 3.025-7.607a2.36 2.36 0 0 0 .132-.523.29.29 0 0 0-.2-.295 1.69 1.69 0 0 0-.492-.048c-.084 0-.163-.048-.163-.114 0-.084.1-.114.325-.114.572 0 1.227.031 1.407.031.084 0 .7-.031 1.13-.031.145 0 .229.031.229.1s-.048.132-.163.132a1.308 1.308 0 0 0-.686.167c-.2.132-.427.325-.8 1.275-.163.391-.866 2.062-1.6 3.76-.884 2.027-1.521 3.531-1.847 4.221-.391.835-.475 1.047-.62 1.047-.163 0-.264-.18-.541-.849L62.7 26.155c-.325-.783-.523-.932-1-1.047a2.827 2.827 0 0 0-.558-.048.124.124 0 0 1-.114-.132c0-.084.145-.1.374-.1.686 0 1.5.031 1.684.031.15 0 .787-.031 1.341-.031.259 0 .391.031.391.1a.133.133 0 0 1-.145.132 1.8 1.8 0 0 0-.523.066.228.228 0 0 0-.163.246 5.9 5.9 0 0 0 .391 1.161l2.713 7Z" data-name="Path 172"/><path d="M74.617 28.85c0-2.159 0-2.55-.031-2.995-.035-.475-.114-.7-.589-.77a4.324 4.324 0 0 0-.492-.035.14.14 0 0 1-.114-.114c0-.084.066-.114.229-.114.655 0 1.587.031 1.667.031.1 0 3.1.018 3.434 0 .277-.018.541-.066.655-.084.066-.018.128-.066.193-.066.048 0 .066.066.066.132a6.454 6.454 0 0 0-.114.655c-.018.132-.048.752-.084.915-.018.066-.066.145-.128.145-.084 0-.114-.066-.114-.18a1.549 1.549 0 0 0-.084-.492c-.1-.229-.246-.325-1.029-.427-.246-.031-1.913-.048-2.076-.048-.066 0-.084.048-.084.15v3.777c0 .1 0 .15.084.15.18 0 2.076 0 2.405-.035s.558-.048.7-.2c.1-.1.163-.18.211-.18s.079.031.079.114-.079.312-.114.77c-.031.277-.066.8-.066.9 0 .114-.031.264-.128.264-.066 0-.1-.048-.1-.132a1.22 1.22 0 0 0-.066-.457c-.048-.2-.18-.361-.734-.427-.391-.048-1.93-.066-2.177-.066-.084 0-.1.048-.1.1v1.161c0 .475-.018 2.093 0 2.37.035.932.295 1.113 1.719 1.113a4.7 4.7 0 0 0 1.438-.15 1.055 1.055 0 0 0 .655-.967c.031-.163.066-.211.145-.211s.1.114.1.211a11.253 11.253 0 0 1-.2 1.341c-.1.361-.246.361-.8.361-1.082 0-1.913-.031-2.5-.048-.607-.031-.981-.031-1.192-.031-.035 0-.312 0-.62.018-.277.018-.607.035-.835.035-.145 0-.229-.035-.229-.114a.11.11 0 0 1 .114-.114 3.865 3.865 0 0 0 .444-.066c.277-.048.312-.325.378-.734a29.278 29.278 0 0 0 .079-3.008v-2.461Z" data-name="Path 173"/><path d="M82.321 28.85c0-2.159 0-2.55-.031-2.995-.031-.475-.114-.7-.589-.77a4.324 4.324 0 0 0-.492-.035.14.14 0 0 1-.114-.114c0-.084.066-.114.229-.114.655 0 1.618.031 1.7.031.15 0 1.359-.031 1.8-.031a4.717 4.717 0 0 1 2.682.607 2.432 2.432 0 0 1 1 1.9 4.047 4.047 0 0 1-1.768 3.17c1.178 1.473 2.177 2.731 3.008 3.6a2.645 2.645 0 0 0 1.6.963 2.682 2.682 0 0 0 .506.048.13.13 0 0 1 .132.114c0 .084-.084.114-.343.114h-.9a2.939 2.939 0 0 1-1.539-.277 7.351 7.351 0 0 1-1.961-2.045c-.607-.752-1.244-1.649-1.552-2.027a.225.225 0 0 0-.2-.084l-1.834-.031c-.066 0-.1.031-.1.114v.325c0 1.341 0 2.423.066 2.995.048.409.132.673.572.734a4.829 4.829 0 0 0 .638.066.1.1 0 0 1 .114.114c0 .066-.066.114-.229.114-.787 0-1.7-.048-1.768-.048-.018 0-.981.048-1.42.048-.145 0-.229-.035-.229-.114a.11.11 0 0 1 .114-.114 1.937 1.937 0 0 0 .444-.066c.277-.066.308-.325.378-.734a27.742 27.742 0 0 0 .084-3.008v-2.458Zm1.244 1.178a.21.21 0 0 0 .1.18 4.892 4.892 0 0 0 1.587.211 1.91 1.91 0 0 0 1.082-.242 2.483 2.483 0 0 0 .866-2.127c0-1.733-.95-2.731-2.484-2.731a5.9 5.9 0 0 0-1.029.084.182.182 0 0 0-.114.167v4.463Z" data-name="Path 174"/><path d="M91.63 35.147c-.2-.1-.211-.145-.211-.523 0-.686.066-1.24.084-1.473 0-.145.035-.229.114-.229s.132.048.132.163a2.145 2.145 0 0 0 .048.51 2.119 2.119 0 0 0 2.273 1.372c1.42 0 2.159-.8 2.159-1.847s-.541-1.473-1.816-2.423l-.655-.492c-1.552-1.161-2.058-2.014-2.058-2.977 0-1.636 1.293-2.616 3.188-2.616a7.129 7.129 0 0 1 1.486.163 1.842 1.842 0 0 0 .506.066c.114 0 .145.018.145.1a14.646 14.646 0 0 0-.066 1.473c0 .211-.018.312-.114.312s-.114-.066-.132-.18a2.694 2.694 0 0 0-.211-.686c-.1-.163-.572-.686-1.864-.686-1.047 0-1.913.523-1.913 1.5 0 .884.44 1.39 1.864 2.357l.409.277c1.75 1.192 2.357 2.159 2.357 3.351a2.709 2.709 0 0 1-1.341 2.37 4.428 4.428 0 0 1-2.291.492 5.222 5.222 0 0 1-2.093-.378Z" data-name="Path 175"/><path d="M101.409 31.3c0 1.341 0 2.436.066 3.008.048.409.1.673.523.734a5.3 5.3 0 0 0 .655.066.113.113 0 0 1 .114.114c0 .066-.066.114-.229.114-.8 0-1.733-.048-1.8-.048-.084 0-.981.048-1.425.048-.145 0-.229-.035-.229-.114a.11.11 0 0 1 .114-.114 1.937 1.937 0 0 0 .444-.066c.277-.066.325-.325.374-.734.066-.572.084-1.667.084-3.008v-2.45c0-2.159 0-2.55-.031-2.995-.035-.475-.145-.686-.457-.752a2.756 2.756 0 0 0-.44-.048.123.123 0 0 1-.114-.114c0-.084.066-.114.229-.114.475 0 1.372.031 1.455.031.066 0 1-.031 1.438-.031.163 0 .229.031.229.114a.14.14 0 0 1-.114.114 1.5 1.5 0 0 0-.361.035c-.391.084-.475.277-.506.77-.018.44-.018.835-.018 2.995v2.454Z" data-name="Path 176"/><path d="M109.276 31.3c0 1.341 0 2.436.066 3.008.048.409.114.673.558.734a5.064 5.064 0 0 0 .655.066.1.1 0 0 1 .114.114c0 .066-.066.114-.229.114-.783 0-1.7-.048-1.781-.048s-1.064.048-1.486.048c-.163 0-.229-.035-.229-.114 0-.048.031-.1.114-.1a2.047 2.047 0 0 0 .427-.066c.295-.066.378-.343.427-.752.066-.572.066-1.667.066-3.008v-5.84l-2.078.044c-.9.018-1.244.114-1.455.44a2.331 2.331 0 0 0-.229.44c-.035.114-.084.132-.15.132a.108.108 0 0 1-.1-.114c0-.15.295-1.39.312-1.5.031-.084.1-.264.145-.264a4.924 4.924 0 0 0 .638.163c.409.048.963.066 1.126.066h5.431a6.759 6.759 0 0 0 1.029-.066c.211-.031.343-.066.409-.066s.066.084.066.163c0 .427-.048 1.42-.048 1.587 0 .114-.066.18-.132.18s-.1-.048-.114-.242l-.018-.15c-.048-.427-.361-.734-1.733-.77l-1.8-.035V31.3Z" data-name="Path 177"/><path d="M118.73 31.731a2.445 2.445 0 0 0-.312-1.42c-.114-.215-2.058-3.307-2.55-4.041a3.59 3.59 0 0 0-.95-1.016 1.407 1.407 0 0 0-.607-.2.141.141 0 0 1-.145-.132c0-.066.048-.1.18-.1.277 0 1.359.031 1.42.031.1 0 .686-.031 1.244-.031.163 0 .2.031.2.1 0 .048-.1.1-.229.15a.24.24 0 0 0-.18.229 1.113 1.113 0 0 0 .2.541l2.616 4.336c.295-.589 2.093-3.566 2.357-4.023a1.49 1.49 0 0 0 .246-.717c0-.2-.066-.312-.229-.361-.132-.031-.211-.1-.211-.163 0-.048.084-.084.229-.084.374 0 .884.031 1 .031.1 0 1.126-.031 1.407-.031.1 0 .18.031.18.084a.166.166 0 0 1-.18.145 1.484 1.484 0 0 0-.673.18 2.486 2.486 0 0 0-.717.686c-.475.558-2.5 3.826-2.8 4.415a2.772 2.772 0 0 0-.18 1.39v1.192c0 .229 0 .818.048 1.39.035.409.132.673.554.734a5.064 5.064 0 0 0 .655.066.11.11 0 0 1 .114.114c0 .066-.084.114-.229.114-.8 0-1.733-.048-1.816-.048-.066 0-.981.048-1.407.048-.163 0-.229-.035-.229-.114a.113.113 0 0 1 .114-.114 1.792 1.792 0 0 0 .427-.066c.295-.066.391-.325.427-.734.035-.572.035-1.161.035-1.39v-1.191Z" data-name="Path 178"/></g><g data-name="Group 1964"><path d="M153.979 33.248c.066.585.18 1.5.875 1.724a3.542 3.542 0 0 0 1.055.145c.079 0 .128.018.128.079 0 .1-.145.145-.343.145-.356 0-2.111-.048-2.713-.1-.374-.035-.457-.084-.457-.163s.031-.1.114-.114.1-.295.062-.585L151.921 26h-.048l-3.973 8.448c-.343.712-.391.862-.536.862-.114 0-.193-.163-.5-.748-.422-.8-1.82-3.606-1.9-3.768-.145-.29-1.966-4.191-2.141-4.626h-.066L142.1 33.7c-.018.259-.018.554-.018.827a.512.512 0 0 0 .422.5 2.977 2.977 0 0 0 .616.084c.066 0 .128.031.128.079 0 .114-.1.145-.29.145-.6 0-1.381-.048-1.513-.048s-.923.048-1.363.048c-.163 0-.277-.031-.277-.145 0-.048.084-.079.163-.079a2.112 2.112 0 0 0 .488-.048c.536-.1.585-.73.651-1.346l1.17-10.589c.018-.176.084-.29.18-.29s.163.066.242.242l4.969 10.22 4.775-10.2c.066-.145.132-.259.242-.259s.163.132.193.44l1.086 9.969Z" data-name="Path 179"/><path d="M161.111 25.179c.176-.453.242-.536.343-.536.145 0 .193.193.343.5.259.585 2.55 6.284 3.425 8.377.519 1.236.91 1.412 1.218 1.513a1.961 1.961 0 0 0 .567.084c.079 0 .18.031.18.114s-.163.114-.325.114c-.211 0-1.266 0-2.256-.031-.277-.018-.5-.018-.5-.1 0-.062.031-.062.1-.1a.258.258 0 0 0 .128-.374l-1.284-3.166c-.031-.066-.048-.079-.128-.079h-3.3a.146.146 0 0 0-.145.114l-.813 2.207a2.9 2.9 0 0 0-.211.923c0 .277.242.374.488.374h.128c.114 0 .145.048.145.114s-.079.114-.211.114c-.343 0-1.121-.048-1.284-.048-.145 0-.862.048-1.447.048-.18 0-.277-.031-.277-.114a.125.125 0 0 1 .128-.114 3.721 3.721 0 0 0 .422-.035c.651-.079.928-.567 1.2-1.266l3.36-8.641Zm1.592 5.747c.066 0 .066-.031.048-.1l-1.412-3.786c-.084-.211-.163-.211-.242 0l-1.332 3.786c-.018.066 0 .1.048.1Z" data-name="Path 180"/><path d="M168.423 28.9c0-2.146 0-2.533-.031-2.973-.031-.471-.114-.7-.585-.765a4.273 4.273 0 0 0-.488-.031.14.14 0 0 1-.114-.114c0-.084.066-.114.229-.114.651 0 1.6.031 1.689.031.145 0 1.346-.031 1.785-.031a4.634 4.634 0 0 1 2.66.6 2.418 2.418 0 0 1 .989 1.882 4.024 4.024 0 0 1-1.755 3.148c1.17 1.46 2.159 2.713 2.986 3.571a2.693 2.693 0 0 0 2.1 1.007.122.122 0 0 1 .128.114c0 .079-.079.114-.339.114h-.893a2.84 2.84 0 0 1-1.526-.277 7.289 7.289 0 0 1-1.948-2.027c-.6-.748-1.236-1.64-1.543-2.014a.217.217 0 0 0-.193-.084l-1.816-.031c-.066 0-.1.031-.1.114v.325c0 1.332 0 2.4.066 2.968.048.409.128.668.567.73a5.649 5.649 0 0 0 .633.066.1.1 0 0 1 .114.114c0 .066-.066.114-.229.114-.778 0-1.689-.048-1.755-.048-.018 0-.972.048-1.412.048-.145 0-.229-.031-.229-.114a.11.11 0 0 1 .114-.114 2.218 2.218 0 0 0 .44-.066c.277-.066.308-.325.374-.73a28.84 28.84 0 0 0 .079-2.986v-2.433Zm1.231 1.17a.211.211 0 0 0 .1.18 4.818 4.818 0 0 0 1.574.211 1.882 1.882 0 0 0 1.073-.242 2.462 2.462 0 0 0 .862-2.111c0-1.719-.941-2.713-2.467-2.713a6.506 6.506 0 0 0-1.025.079.181.181 0 0 0-.114.163Z" data-name="Path 181"/><path d="M180.344 31.753a2.451 2.451 0 0 0-.308-1.412c-.114-.211-2.045-3.28-2.533-4.01a3.653 3.653 0 0 0-.941-1.007 1.436 1.436 0 0 0-.6-.193.144.144 0 0 1-.145-.132c0-.066.048-.1.176-.1.277 0 1.35.031 1.412.031.1 0 .682-.031 1.236-.031.163 0 .193.031.193.1 0 .048-.1.1-.229.145a.236.236 0 0 0-.176.229 1.153 1.153 0 0 0 .193.536l2.6 4.3c.29-.585 2.08-3.54 2.339-3.993a1.447 1.447 0 0 0 .242-.712c0-.2-.066-.308-.229-.356-.128-.031-.211-.1-.211-.163 0-.048.084-.079.229-.079.374 0 .875.031.989.031.1 0 1.121-.031 1.4-.031.1 0 .18.031.18.079a.166.166 0 0 1-.18.145 1.426 1.426 0 0 0-.664.18 2.454 2.454 0 0 0-.717.69c-.471.554-2.484 3.8-2.775 4.384a2.782 2.782 0 0 0-.18 1.381v1.187c0 .229 0 .813.048 1.381.031.409.128.668.55.73a5.917 5.917 0 0 0 .651.066.113.113 0 0 1 .114.114c0 .066-.079.114-.229.114-.8 0-1.724-.048-1.8-.048s-.976.048-1.4.048c-.163 0-.229-.031-.229-.114a.11.11 0 0 1 .114-.114 2.051 2.051 0 0 0 .422-.066c.295-.066.387-.325.422-.73.031-.567.031-1.152.031-1.381v-1.191Z" data-name="Path 182"/><path d="M189.376 31.366c0 2.032.031 2.858.295 3.1.229.229.778.325 1.9.325.748 0 1.381-.018 1.719-.422a1.664 1.664 0 0 0 .343-.778c.018-.1.066-.176.145-.176s.1.066.1.211a8.634 8.634 0 0 1-.211 1.381c-.1.325-.145.374-.91.374-1.025 0-1.816-.018-2.484-.048a59.755 59.755 0 0 0-1.557-.031c-.066 0-.308 0-.585.018-.295.018-.6.031-.827.031-.145 0-.229-.031-.229-.114a.11.11 0 0 1 .114-.114 2.217 2.217 0 0 0 .44-.066c.277-.066.308-.325.374-.73a28.84 28.84 0 0 0 .079-2.986V28.9c0-2.146 0-2.533-.031-2.973-.031-.471-.114-.7-.585-.765a4.273 4.273 0 0 0-.488-.031.14.14 0 0 1-.114-.114c0-.084.066-.114.229-.114.651 0 1.543.031 1.623.031s1.134-.031 1.574-.031c.145 0 .229.031.229.114 0 .048-.066.1-.114.1-.1 0-.308.018-.471.031-.422.079-.506.29-.536.778-.018.44-.018.827-.018 2.973v2.467Z" data-name="Path 183"/><path d="M199.415 25.179c.18-.453.242-.536.343-.536.145 0 .193.193.339.5.259.585 2.55 6.284 3.425 8.377.519 1.236.91 1.412 1.218 1.513a1.961 1.961 0 0 0 .567.084c.084 0 .18.031.18.114s-.163.114-.325.114c-.211 0-1.266 0-2.256-.031-.277-.018-.506-.018-.506-.1 0-.062.031-.062.1-.1a.256.256 0 0 0 .128-.374l-1.284-3.166c-.031-.066-.048-.079-.128-.079h-3.296a.154.154 0 0 0-.15.114l-.809 2.207a2.788 2.788 0 0 0-.211.923c0 .277.242.374.488.374h.128c.114 0 .145.048.145.114s-.079.114-.211.114c-.343 0-1.121-.048-1.284-.048-.145 0-.862.048-1.447.048-.18 0-.277-.031-.277-.114a.122.122 0 0 1 .128-.114 3.721 3.721 0 0 0 .422-.035c.651-.079.928-.567 1.2-1.266l3.359-8.641Zm1.592 5.747c.066 0 .066-.031.048-.1l-1.412-3.786c-.084-.211-.163-.211-.242 0l-1.332 3.786c-.018.066 0 .1.048.1Z" data-name="Path 184"/><path d="M207.972 33.459c.031 1.139.163 1.477.55 1.574a3.363 3.363 0 0 0 .717.084.111.111 0 0 1 .114.114c0 .079-.1.114-.259.114-.813 0-1.381-.048-1.513-.048s-.73.048-1.381.048c-.145 0-.229-.018-.229-.114a.111.111 0 0 1 .114-.114 2.224 2.224 0 0 0 .585-.084c.356-.1.4-.471.4-1.719v-7.907c0-.554.084-.7.2-.7.163 0 .4.277.55.422.229.229 2.3 2.436 4.516 4.709 1.412 1.46 2.937 3.1 3.377 3.557l-.145-6.917c-.018-.893-.1-1.2-.536-1.284a4.647 4.647 0 0 0-.7-.066c-.1 0-.114-.079-.114-.132 0-.084.114-.1.277-.1.651 0 1.332.031 1.5.031s.633-.031 1.218-.031c.145 0 .259.018.259.1a.164.164 0 0 1-.163.132 1.717 1.717 0 0 0-.343.031c-.471.1-.5.374-.5 1.2l-.031 8.087c0 .906-.018.989-.114.989-.145 0-.29-.114-1.086-.844a174.337 174.337 0 0 1-3.72-3.733c-1.658-1.737-3.263-3.425-3.7-3.914l.163 6.512Z" data-name="Path 185"/><path d="M219.282 28.9c0-2.146 0-2.533-.031-2.973-.031-.471-.114-.7-.585-.765a4.273 4.273 0 0 0-.488-.031.14.14 0 0 1-.114-.114c0-.084.066-.114.229-.114.651 0 1.574.031 1.658.031.163 0 1.073-.031 1.917-.031 1.429 0 4.045-.132 5.734 1.574a4.866 4.866 0 0 1 1.4 3.509 5.536 5.536 0 0 1-1.543 3.883 5.735 5.735 0 0 1-4.336 1.592c-.616 0-1.381-.048-2-.079a36.2 36.2 0 0 0-1.17-.079c-.035 0-.295.018-.585.018-.29.018-.633.031-.862.031-.145 0-.229-.031-.229-.114a.11.11 0 0 1 .114-.114 2.217 2.217 0 0 0 .44-.066c.277-.066.308-.325.374-.73a28.84 28.84 0 0 0 .079-2.986V28.9Zm1.3 1.491c0 1.46 0 2.744.018 3a2.6 2.6 0 0 0 .163.989c.176.259.682.55 2.37.55a4.808 4.808 0 0 0 3.346-1.249A4.647 4.647 0 0 0 227.6 30.4a4.784 4.784 0 0 0-1.346-3.456 5.906 5.906 0 0 0-4.63-1.543 3.858 3.858 0 0 0-.862.1.246.246 0 0 0-.18.277v4.613Z" data-name="Path 186"/></g><g data-name="Group 1965"><path d="M131.658 30.209a3.855 3.855 0 0 1-.492 1.851 3.745 3.745 0 0 1-1.381 1.451 3.335 3.335 0 0 1-1.724.536 1.889 1.889 0 0 1-1.394-.545 1.923 1.923 0 0 1-.541-1.412 3.676 3.676 0 0 1 .528-1.838 3.981 3.981 0 0 1 1.412-1.46 3.3 3.3 0 0 1 1.706-.536 1.829 1.829 0 0 1 1.359.541 1.921 1.921 0 0 1 .532 1.412Zm-1.033-.435a1.267 1.267 0 0 0-.281-.888.95.95 0 0 0-.734-.308c-.611 0-1.174.435-1.684 1.315a5.114 5.114 0 0 0-.77 2.608 1.3 1.3 0 0 0 .3.915.984.984 0 0 0 .756.321q.877 0 1.649-1.306a5.159 5.159 0 0 0 .77-2.656Z" data-name="Path 187"/><path d="m135.668 28.406-.11.413h-.91l-.686 2.726a16.621 16.621 0 0 1-.915 2.788 4.789 4.789 0 0 1-1.412 1.922 1.962 1.962 0 0 1-1.148.4.949.949 0 0 1-.638-.224.5.5 0 0 1-.193-.4.467.467 0 0 1 .158-.347.56.56 0 0 1 .391-.145.41.41 0 0 1 .286.106.324.324 0 0 1 .114.242.341.341 0 0 1-.132.255c-.066.057-.1.1-.1.132a.115.115 0 0 0 .044.088.267.267 0 0 0 .171.044 1.175 1.175 0 0 0 .567-.167 1.671 1.671 0 0 0 .528-.5 3.852 3.852 0 0 0 .435-.963c.057-.171.215-.752.466-1.728l1.086-4.221h-1.086l.088-.413a2.5 2.5 0 0 0 .726-.07.911.911 0 0 0 .378-.273 4.038 4.038 0 0 0 .444-.756 6.143 6.143 0 0 1 .708-1.161 3.4 3.4 0 0 1 .967-.831 2.017 2.017 0 0 1 .959-.277 1.128 1.128 0 0 1 .761.242.685.685 0 0 1 .286.519.515.515 0 0 1-.145.369.487.487 0 0 1-.369.15.459.459 0 0 1-.317-.114.358.358 0 0 1-.123-.268.545.545 0 0 1 .079-.246.543.543 0 0 0 .079-.2.156.156 0 0 0-.057-.132.393.393 0 0 0-.237-.062 1.086 1.086 0 0 0-.7.251 2.891 2.891 0 0 0-.752 1.038c-.11.242-.317.853-.616 1.825h.915Z" data-name="Path 188"/></g></g><g data-name="Group 1968"><g fill="#231f20" data-name="Group 1967"><path d="M3.276 25.377v21.032q1.662.93 3.373 1.755l.061-25.206s-2.427-.55-3.434 2.414Z" data-name="Path 189"/><path d="M10.175 25.377v24.356a54.02 54.02 0 0 0 3.368 1.231l.07-28.006s-2.427-.55-3.439 2.414Z" data-name="Path 190"/><path d="M17.079 25.377v26.63c1.108.286 2.229.541 3.359.756l.075-29.8s-2.432-.55-3.434 2.414Z" data-name="Path 191"/></g><path fill="#ffd200" d="M0 0v3.733a58 58 0 0 1 23.947 8.817V12A66.976 66.976 0 0 0 0 0Z" data-name="Path 192"/><path fill="#231f20" d="M5.945 14.7a13.785 13.785 0 0 1 5.985-1.108 17.542 17.542 0 0 1 7.37 1.543 18.982 18.982 0 0 1 4.652 2.986v-2.836A58.084 58.084 0 0 0 0 6.464v11.613A19.6 19.6 0 0 1 5.945 14.7Z" data-name="Path 193"/><path fill="#231f20" d="M12 16.384 1.917 21.01H22.2Z" data-name="Path 194"/><path fill="#e31937" d="M0 48.119a67.022 67.022 0 0 0 23.947 12v-3.733A58.025 58.025 0 0 1 0 47.565Z" data-name="Path 195"/></g></svg>